<?xml version="1.0" encoding="utf-8"?>
<!-- Generator: Adobe Illustrator 20.1.0, SVG Export Plug-In . SVG Version: 6.00 Build 0)  -->
<svg version="1.1" id="Calque_1" xmlns="http://www.w3.org/2000/svg" xmlns:xlink="http://www.w3.org/1999/xlink" x="0px" y="0px"
	 viewBox="0 0 1130.3 400.8" style="enable-background:new 0 0 1130.3 400.8;" xml:space="preserve">
<style type="text/css">
	.st0{fill:#43B6E8;}
	.st1{fill:#0A9FBF;}
	.st2{fill:#22425C;}
	.st3{fill:none;stroke:#22425C;stroke-width:5;stroke-miterlimit:10;}
	.st4{fill:#33CC99;}
	.st5{fill-opacity:0.37;}
</style>
<title>logo-elium</title>
<desc>Created with Sketch.</desc>
<g>
	<path class="st0" d="M202,73.5c-36.7,0-69.8,15.7-92.9,40.7l65,37.6v-0.4l84.3,48.9l-0.2,0.1l64.9,37.6c3.6-11.9,5.6-24.5,5.6-37.7
		C328.7,130.4,272,73.5,202,73.5z"/>
	<path class="st1" d="M323,163.1L108.9,286.5c8.4,9.1,18.4,17.2,29.8,23.8c60.7,35.1,138.1,14.2,173.1-46.3
		C330.2,232.3,333.1,195.7,323,163.1z"/>
	<path class="st2" d="M138.7,90.7C78,125.8,57.3,203.1,92.2,263.8c18.4,31.7,48.4,52.7,81.7,60.4l0.2-247.4
		C162,79.6,150,84.1,138.7,90.7z"/>
	<g id="arc_2_">
		<path id="arc-02_2_" class="st3" d="M122.8,17.3c0,0,121.4-54.6,219.4,45.6s38.2,221.9,38.2,221.9"/>
		<path id="arc-01_2_" class="st3" d="M278.1,383.4c0,0-121.4,54.6-219.4-45.6c-98.1-100.2-38-222.1-38-222.1"/>
	</g>
	<g id="electron_3_" transform="translate(16.768559, 12.573913)">
		<path id="electron-02_2_" class="st4" d="M46.3,75.3c18.2,0,32.9-14.7,32.9-32.9S64.5,9.5,46.3,9.5S13.4,24.2,13.4,42.4
			S28.1,75.3,46.3,75.3z"/>
		<path id="electron-01_2_" class="st4" d="M327.1,361.2c18.2,0,32.9-14.7,32.9-32.9s-14.7-32.9-32.9-32.9s-32.9,14.7-32.9,32.9
			S308.9,361.2,327.1,361.2z"/>
	</g>
	<path id="text-elium_2_" class="st2" d="M489.6,228.8c0,6,1.3,11.2,3.8,16.2c2.6,4.8,6,8.9,10.1,12.4s9.1,6.1,14.6,7.9
		c5.5,2,11.2,2.8,17.2,2.8c7.9,0,15-1.8,20.8-5.6s11.4-8.6,16.4-14.7l19.5,14.9c-14.4,18.5-34.4,27.8-60,27.8
		c-10.7,0-20.3-1.8-29.1-5.5c-8.6-3.6-16-8.6-22-15s-10.6-13.9-13.9-22.7c-3.3-8.6-4.8-18-4.8-28.1s1.8-19.5,5.3-28.1
		s8.4-16.2,14.6-22.7c6.1-6.4,13.6-11.4,22.2-15c8.6-3.6,17.9-5.5,28.1-5.5c12.1,0,22.2,2.1,30.4,6.3c8.3,4.1,15,9.8,20.5,16.4
		c5.3,6.8,9.3,14.4,11.6,22.8s3.6,17.2,3.6,26v9.1H489.6V228.8z M570.9,208.1c-0.2-5.8-1.2-10.9-2.6-15.7c-1.5-4.8-4.1-8.9-7.3-12.4
		c-3.3-3.5-7.3-6.3-12.2-8.3c-4.8-2-10.6-3-17-3c-6.3,0-12.1,1.2-17.4,3.6c-5.3,2.3-9.8,5.5-13.2,9.3c-3.6,3.8-6.4,8.1-8.4,12.7
		s-3,9.3-3,13.9L570.9,208.1L570.9,208.1L570.9,208.1z M631.3,70.9h25.8v216.3h-25.8V70.9z M699.9,151.6h25.8v135.6h-25.8V151.6z
		 M886.7,287.2h-25.8v-20.8h-0.5c-3.3,7.3-8.9,13.1-16.9,17.5c-7.9,4.5-17.2,6.8-27.8,6.8c-6.6,0-12.9-1-18.9-3s-11.1-5.1-15.5-9.3
		c-4.5-4.1-8.1-9.6-10.7-16.2c-2.6-6.6-4-14.4-4-23.3v-87.3h25.8v80c0,6.3,0.8,11.7,2.6,16.2c1.7,4.5,4,8.1,6.9,10.9
		c2.8,2.8,6.1,4.8,9.9,6c3.6,1.2,7.6,1.8,11.6,1.8c5.3,0,10.3-0.8,14.9-2.6c4.6-1.7,8.6-4.5,12.1-8.1s6.1-8.4,7.9-14.2
		c2-5.8,2.8-12.6,2.8-20.3v-69.6h26v135.6L886.7,287.2L886.7,287.2z M925.6,151.6h24v21.2h0.5c0.5-2,2-4.3,4.5-7.1
		c2.5-2.8,5.5-5.6,9.1-8.1s8.1-4.8,13.2-6.6c5.1-1.8,10.6-2.6,16.7-2.6c10.1,0,18.5,2.1,25.5,6.3c6.9,4.1,12.6,10.4,16.9,18.9
		c4.5-8.4,10.6-14.7,18.5-18.9c7.9-4.1,16-6.3,24.3-6.3c10.4,0,19,1.7,25.8,5.1c6.6,3.5,11.9,7.9,15.7,13.6
		c3.8,5.6,6.4,12.1,7.9,19.2s2.1,14.6,2.1,22.2v78.9h-25.8v-75.6c0-5.1-0.3-10.1-1-14.9s-2-8.9-4.1-12.6s-5.1-6.6-8.9-8.8
		c-3.8-2.1-8.9-3.3-15.2-3.3c-12.4,0-21.3,3.8-26.6,11.4c-5.3,7.6-7.9,17.5-7.9,29.4v74.1H1015v-70.9c0-6.4-0.3-12.4-1-17.7
		s-2-9.9-4-13.9s-4.8-6.9-8.6-9.1c-3.6-2.1-8.8-3.3-15-3.3c-4.6,0-8.9,0.8-13.2,2.6c-4.3,1.8-8.1,4.5-11.2,8.1
		c-3.1,3.6-5.8,8.3-7.8,13.9s-2.8,12.2-2.8,19.8V287h-25.8L925.6,151.6L925.6,151.6L925.6,151.6z"/>
	<path id="text-point_2_" class="st4" d="M711.8,120.5c13.7,0,24.8-11.1,24.8-24.8c0-13.7-11.1-24.8-24.8-24.8S687,82,687,95.7
		S698.2,120.5,711.8,120.5z"/>
	<path class="st0" d="M174.1,151.4l37.5,21.8c14.6,8.4,27.8,15.9,37,21.2L202,73.7c-36.7,0-69.9,15.7-93.1,40.7
		c0,0,31.1,17.7,65.2,37.3L174.1,151.4L174.1,151.4z"/>
	<polygon class="st5" points="174,161.3 174,151.7 109.1,114.5 	"/>
	<polygon class="st5" points="250.7,195.8 258.4,200.3 257.9,200.6 258.2,200.7 323,163.3 	"/>
	<polygon class="st5" points="174,324.3 182.6,244.3 174,249.3 	"/>
</g>
</svg>
