<?xml version="1.0" encoding="UTF-8" standalone="no"?>
<svg width="720px" height="280px" viewBox="0 0 720 280" version="1.1" xmlns="http://www.w3.org/2000/svg" xmlns:xlink="http://www.w3.org/1999/xlink">
    <!-- Generator: Sketch 3.6.1 (26313) - http://www.bohemiancoding.com/sketch -->
    <title>elium-logo</title>
    <desc>Created with Sketch.</desc>
    <defs>
        <path d="M70.5315801,140.756501 C109.485096,140.756501 141.06316,109.247085 141.06316,70.3782506 C141.06316,31.5094161 109.485096,0 70.5315801,0 C31.578064,0 0,31.5094161 0,70.3782506 C0,109.247085 31.578064,140.756501 70.5315801,140.756501 Z M54.2550616,96.5187437 L54.2550616,42.2269504 L101.61198,69.7246433 L54.2550616,96.5187437 Z" id="path-1"></path>
    </defs>
    <g id="Logo-VERT/BLEU" stroke="none" stroke-width="1" fill="none" fill-rule="evenodd">
        <g id="elium-logo">
            <g id="elium-logo-light" transform="translate(-92.000000, -89.000000)">
                <g id="ring" transform="translate(229.304197, 229.195238) rotate(-140.000000) translate(-229.304197, -229.195238) translate(67.304197, 66.695238)">
                    <path d="M123.187358,271.440535 C123.187358,271.440535 148.589232,277.991974 162.305958,277.991974 C227.093947,277.991974 279.614988,226.486506 279.614988,162.951292 C279.614988,125.306755 261.886756,104.753203 261.886756,104.753203 M200.229545,53.9196966 C188.059669,49.6764498 174.965505,47.3678605 161.325553,47.3678605 C96.7832995,47.3678605 44.4614649,99.0581865 44.4614649,162.821435 C44.4614649,200.753151 60.6934365,219.523889 60.6934365,219.523889" stroke="#5585B5" stroke-width="5" transform="translate(162.038227, 162.679917) rotate(-124.000000) translate(-162.038227, -162.679917) "></path>
                    <path d="M150.419568,298.707905 C160.907053,298.707905 169.408839,290.224601 169.408839,279.759915 C169.408839,269.295228 160.907053,260.811924 150.419568,260.811924 C139.932083,260.811924 131.430296,269.295228 131.430296,279.759915 C131.430296,290.224601 139.932083,298.707905 150.419568,298.707905 Z M172.875094,68.7933623 C183.36258,68.7933623 191.864366,60.310058 191.864366,49.8453718 C191.864366,39.3806856 183.36258,30.8973812 172.875094,30.8973812 C162.387609,30.8973812 153.885823,39.3806856 153.885823,49.8453718 C153.885823,60.310058 162.387609,68.7933623 172.875094,68.7933623 Z" id="electrons" fill="#50AA5A" transform="translate(161.647331, 164.802643) rotate(-90.000000) translate(-161.647331, -164.802643) "></path>
                </g>
                <g id="elium-picto" transform="translate(158.514238, 158.080378)">
                    <rect id="white-rectangle" fill="#FFFFFF" x="29.9324619" y="33.8521739" width="79.5520738" height="74.6833282"></rect>
                    <g id="play-icon">
                        <mask id="mask-2" fill="white">
                            <use xlink:href="#path-1"></use>
                        </mask>
                        <use id="Oval-17" fill="#D6B7B7" xlink:href="#path-1"></use>
                        <path d="M-20.3441764,21.1741842 L35.2009,117.381079 L234.499627,-1.62247074 L180.65992,-94.8755852 L-20.3441764,21.1741842 Z" id="Path-3" fill="#50AA5A" mask="url(#mask-2)">
                            <g transform="translate(107.077725, 11.252747) rotate(-121.000000) translate(-107.077725, -11.252747) "></g>
                        </path>
                        <path d="M13.5287535,120.013984 C13.5287535,120.013984 44.4691458,142.586395 60.7352803,143.566493 C77.0014148,144.546591 91.9037656,147.695722 118.103158,125.740601 C144.302551,103.78548 141.005129,88.3520744 142.071447,77.1249037 C143.137765,65.8977329 138.124344,48.0786862 138.124344,48.0786862 L13.5287535,120.013984 Z" id="Path" fill="#001B41" mask="url(#mask-2)">
                            <g transform="translate(77.874511, 96.190175) rotate(-359.200000) translate(-77.874511, -96.190175) "></g>
                        </path>
                        <path d="M54.1865352,42.2099855 L54.1865344,140.625191 L2.34103239,117.425722 L-8.72037067,62.734228 L13.1235931,18.6441186 L26.766141,12.0389344 L19.3286693,22.0015094 L54.1865352,42.2099855 Z M54.1865356,-1.07691208 L54.1865356,-1.23694029 L52.1609715,-0.256241977 L54.1865356,-1.07691208 Z" id="Path-2" fill="#5585B5" mask="url(#mask-2)"></path>
                    </g>
                    <g id="shadow" transform="translate(18.000000, 16.000000)" fill-opacity="0.370000005" fill="#000000">
                        <polygon id="Triangle-1" style="mix-blend-mode: overlay;" transform="translate(18.254147, 18.772725) rotate(-10.000000) translate(-18.254147, -18.772725) " points="2.8067225 3.10510072 33.7015721 29.1026848 32.7267607 34.4403494 "></polygon>
                        <polygon id="Triangle-2" style="mix-blend-mode: overlay;" transform="translate(37.358703, 99.930959) rotate(-130.000000) translate(-37.358703, -99.930959) " points="21.1111718 83.597543 53.6062342 110.799735 52.6038349 116.264375 "></polygon>
                        <polygon id="Triangle-3" style="mix-blend-mode: overlay;" transform="translate(98.402665, 42.764778) rotate(-249.200000) translate(-98.402665, -42.764778) " points="82.5116483 26.9748991 114.293682 53.5914635 113.431436 58.5546561 "></polygon>
                    </g>
                </g>
            </g>
            <text id="elium" font-family="Avenir-Medium, Avenir" font-size="173" font-weight="400" line-spacing="232" fill="#001B41">
                <tspan x="292" y="197">elium</tspan>
            </text>
            <circle id="Oval-10" fill="#50AA5A" cx="450.5" cy="81.5" r="11.5"></circle>
        </g>
    </g>
</svg>