<?xml version="1.0" encoding="UTF-8" standalone="no"?>
<svg width="720px" height="280px" viewBox="0 0 720 280" version="1.1" xmlns="http://www.w3.org/2000/svg" xmlns:xlink="http://www.w3.org/1999/xlink">
    <!-- Generator: Sketch 3.6.1 (26313) - http://www.bohemiancoding.com/sketch -->
    <title>elium-logo</title>
    <desc>Created with Sketch.</desc>
    <defs>
        <path d="M70.5315801,140.756501 C109.485096,140.756501 141.06316,109.247085 141.06316,70.3782506 C141.06316,31.5094161 109.485096,0 70.5315801,0 C31.578064,0 0,31.5094161 0,70.3782506 C0,109.247085 31.578064,140.756501 70.5315801,140.756501 Z M54.2550616,96.5187437 L54.2550616,42.2269504 L101.61198,69.7246433 L54.2550616,96.5187437 Z" id="path-1"></path>
    </defs>
    <g id="Logo-VERT/BLEU" stroke="none" stroke-width="1" fill="none" fill-rule="evenodd">
        <g id="elium-logo">
            <g id="elium-logo-light" transform="translate(-92.000000, -89.000000)">
                <g id="ring" transform="translate(229.304197, 229.195238) rotate(-140.000000) translate(-229.304197, -229.195238) translate(67.304197, 66.695238)">
                    <path d="M123.187358,271.440535 C123.187358,271.440535 148.589232,277.991974 162.305958,277.991974 C227.093947,277.991974 279.614988,226.486506 279.614988,162.951292 C279.614988,125.306755 261.886756,104.753203 261.886756,104.753203 M200.229545,53.9196966 C188.059669,49.6764498 174.965505,47.3678605 161.325553,47.3678605 C96.7832995,47.3678605 44.4614649,99.0581865 44.4614649,162.821435 C44.4614649,200.753151 60.6934365,219.523889 60.6934365,219.523889" stroke="#5585B5" stroke-width="5" transform="translate(162.038227, 162.679917) rotate(-124.000000) translate(-162.038227, -162.679917) "></path>
                    <path d="M150.419568,298.707905 C160.907053,298.707905 169.408839,290.224601 169.408839,279.759915 C169.408839,269.295228 160.907053,260.811924 150.419568,260.811924 C139.932083,260.811924 131.430296,269.295228 131.430296,279.759915 C131.430296,290.224601 139.932083,298.707905 150.419568,298.707905 Z M172.875094,68.7933623 C183.36258,68.7933623 191.864366,60.310058 191.864366,49.8453718 C191.864366,39.3806856 183.36258,30.8973812 172.875094,30.8973812 C162.387609,30.8973812 153.885823,39.3806856 153.885823,49.8453718 C153.885823,60.310058 162.387609,68.7933623 172.875094,68.7933623 Z" id="electrons" fill="#50AA5A" transform="translate(161.647331, 164.802643) rotate(-90.000000) translate(-161.647331, -164.802643) "></path>
                </g>
                <g id="elium-picto" transform="translate(158.514238, 158.080378)">
                    <rect id="white-rectangle" fill="#FFFFFF" x="29.9324619" y="33.8521739" width="79.5520738" height="74.6833282"></rect>
                    <g id="play-icon">
                        <mask id="mask-2" fill="white">
                            <use xlink:href="#path-1"></use>
                        </mask>
                        <use id="Oval-17" fill="#D6B7B7" xlink:href="#path-1"></use>
                        <path d="M-20.3441764,21.1741842 L35.2009,117.381079 L234.499627,-1.62247074 L180.65992,-94.8755852 L-20.3441764,21.1741842 Z" id="Path-3" fill="#50AA5A" mask="url(#mask-2)">
                            <g transform="translate(107.077725, 11.252747) rotate(-121.000000) translate(-107.077725, -11.252747) "></g>
                        </path>
                        <path d="M13.5287535,120.013984 C13.5287535,120.013984 44.4691458,142.586395 60.7352803,143.566493 C77.0014148,144.546591 91.9037656,147.695722 118.103158,125.740601 C144.302551,103.78548 141.005129,88.3520744 142.071447,77.1249037 C143.137765,65.8977329 138.124344,48.0786862 138.124344,48.0786862 L13.5287535,120.013984 Z" id="Path" fill="#001B41" mask="url(#mask-2)">
                            <g transform="translate(77.874511, 96.190175) rotate(-359.200000) translate(-77.874511, -96.190175) "></g>
                        </path>
                        <path d="M54.1865352,42.2099855 L54.1865344,140.625191 L2.34103239,117.425722 L-8.72037067,62.734228 L13.1235931,18.6441186 L26.766141,12.0389344 L19.3286693,22.0015094 L54.1865352,42.2099855 Z M54.1865356,-1.07691208 L54.1865356,-1.23694029 L52.1609715,-0.256241977 L54.1865356,-1.07691208 Z" id="Path-2" fill="#5585B5" mask="url(#mask-2)"></path>
                    </g>
                    <g id="shadow" transform="translate(18.000000, 16.000000)" fill-opacity="0.370000005" fill="#000000">
                        <polygon id="Triangle-1" style="mix-blend-mode: overlay;" transform="translate(18.254147, 18.772725) rotate(-10.000000) translate(-18.254147, -18.772725) " points="2.8067225 3.10510072 33.7015721 29.1026848 32.7267607 34.4403494 "></polygon>
                        <polygon id="Triangle-2" style="mix-blend-mode: overlay;" transform="translate(37.358703, 99.930959) rotate(-130.000000) translate(-37.358703, -99.930959) " points="21.1111718 83.597543 53.6062342 110.799735 52.6038349 116.264375 "></polygon>
                        <polygon id="Triangle-3" style="mix-blend-mode: overlay;" transform="translate(98.402665, 42.764778) rotate(-249.200000) translate(-98.402665, -42.764778) " points="82.5116483 26.9748991 114.293682 53.5914635 113.431436 58.5546561 "></polygon>
                    </g>
                </g>
            </g>
            <path d="M315.528,157.708 C315.528,161.283351 316.306492,164.541485 317.8635,167.4825 C319.420508,170.423515 321.467654,172.93199 324.005,175.008 C326.542346,177.08401 329.483317,178.698661 332.828,179.852 C336.172683,181.005339 339.632649,181.582 343.208,181.582 C348.052024,181.582 352.261649,180.457511 355.837,178.2085 C359.412351,175.959489 362.699318,172.989685 365.698,169.299 L377.462,178.295 C368.811957,189.482389 356.702078,195.076 341.132,195.076 C334.673301,195.076 328.820193,193.980344 323.5725,191.789 C318.324807,189.597656 313.884518,186.570186 310.2515,182.7065 C306.618482,178.842814 303.821676,174.287193 301.861,169.0395 C299.900324,163.791807 298.92,158.111697 298.92,151.999 C298.92,145.886303 299.986823,140.206193 302.1205,134.9585 C304.254177,129.710807 307.195148,125.155186 310.9435,121.2915 C314.691852,117.427814 319.160974,114.400344 324.351,112.209 C329.541026,110.017656 335.192303,108.922 341.305,108.922 C348.571036,108.922 354.712475,110.190654 359.7295,112.728 C364.746525,115.265346 368.869651,118.581146 372.099,122.6755 C375.328349,126.769854 377.663826,131.383141 379.1055,136.5155 C380.547174,141.647859 381.268,146.86664 381.268,152.172 L381.268,157.708 L315.528,157.708 Z M364.66,145.252 C364.544666,141.791983 363.996838,138.620348 363.0165,135.737 C362.036162,132.853652 360.565676,130.345177 358.605,128.2115 C356.644324,126.077823 354.193515,124.405506 351.2525,123.1945 C348.311485,121.983494 344.880353,121.378 340.959,121.378 C337.152981,121.378 333.664183,122.098826 330.4925,123.5405 C327.320817,124.982174 324.639344,126.856322 322.448,129.163 C320.256656,131.469678 318.555506,134.035819 317.3445,136.8615 C316.133494,139.687181 315.528,142.483986 315.528,145.252 L364.66,145.252 Z M401.163,62.212 L416.733,62.212 L416.733,193 L401.163,193 L401.163,62.212 Z M442.683,110.998 L458.253,110.998 L458.253,193 L442.683,193 L442.683,110.998 Z M439.05,81.588 C439.05,78.4739844 440.174489,75.7925112 442.4235,73.5435 C444.672511,71.2944888 447.353984,70.17 450.468,70.17 C453.582016,70.17 456.263489,71.2944888 458.5125,73.5435 C460.761511,75.7925112 461.886,78.4739844 461.886,81.588 C461.886,84.7020156 460.761511,87.3834888 458.5125,89.6325 C456.263489,91.8815112 453.582016,93.006 450.468,93.006 C447.353984,93.006 444.672511,91.8815112 442.4235,89.6325 C440.174489,87.3834888 439.05,84.7020156 439.05,81.588 L439.05,81.588 Z M555.652,193 L540.082,193 L540.082,180.371 L539.736,180.371 C537.775324,184.753689 534.373024,188.300153 529.529,191.0105 C524.684976,193.720847 519.091365,195.076 512.748,195.076 C508.711313,195.076 504.905351,194.470506 501.33,193.2595 C497.754649,192.048494 494.611847,190.174346 491.9015,187.637 C489.191153,185.099654 487.028675,181.84152 485.414,177.8625 C483.799325,173.88348 482.992,169.183694 482.992,163.763 L482.992,110.998 L498.562,110.998 L498.562,159.438 C498.562,163.244019 499.080995,166.502153 500.119,169.2125 C501.157005,171.922847 502.540991,174.114158 504.271,175.7865 C506.001009,177.458842 507.990489,178.66983 510.2395,179.4195 C512.488511,180.16917 514.823988,180.544 517.246,180.544 C520.475349,180.544 523.473986,180.025005 526.242,178.987 C529.010014,177.948995 531.43199,176.305511 533.508,174.0565 C535.58401,171.807489 537.198661,168.953017 538.352,165.493 C539.505339,162.032983 540.082,157.93869 540.082,153.21 L540.082,110.998 L555.652,110.998 L555.652,193 Z M579.18,110.998 L593.712,110.998 L593.712,123.8 L594.058,123.8 C594.404002,122.646661 595.297826,121.205009 596.7395,119.475 C598.181174,117.744991 600.026489,116.101508 602.2755,114.5445 C604.524511,112.987492 607.177151,111.661172 610.2335,110.5655 C613.289849,109.469828 616.663315,108.922 620.354,108.922 C626.466697,108.922 631.598979,110.190654 635.751,112.728 C639.903021,115.265346 643.30532,119.071308 645.958,124.146 C648.61068,119.071308 652.358976,115.265346 657.203,112.728 C662.047024,110.190654 666.948642,108.922 671.908,108.922 C678.251365,108.922 683.441313,109.95999 687.478,112.036 C691.514687,114.11201 694.686322,116.85115 696.993,120.2535 C699.299678,123.65585 700.885496,127.519478 701.7505,131.8445 C702.615504,136.169522 703.048,140.638644 703.048,145.252 L703.048,193 L687.478,193 L687.478,147.328 C687.478,144.213984 687.276169,141.215348 686.8725,138.332 C686.468831,135.448652 685.632673,132.911344 684.364,130.72 C683.095327,128.528656 681.307678,126.76984 679.001,125.4435 C676.694322,124.11716 673.638019,123.454 669.832,123.454 C662.335296,123.454 656.972349,125.760644 653.743,130.374 C650.513651,134.987356 648.899,140.926964 648.899,148.193 L648.899,193 L633.329,193 L633.329,150.096 C633.329,146.174647 633.127169,142.599349 632.7235,139.37 C632.319831,136.140651 631.512506,133.343845 630.3015,130.9795 C629.090494,128.615155 627.360511,126.76984 625.1115,125.4435 C622.862489,124.11716 619.835019,123.454 616.029,123.454 C613.260986,123.454 610.579513,124.001828 607.9845,125.0975 C605.389487,126.193172 603.111676,127.836656 601.151,130.028 C599.190324,132.219344 597.633339,135.01615 596.48,138.4185 C595.326661,141.82085 594.75,145.828644 594.75,150.442 L594.75,193 L579.18,193 L579.18,110.998 Z" id="elium" fill="#001B41"></path>
            <path d="M450,97 C458.284271,97 465,90.2842712 465,82 C465,73.7157288 458.284271,67 450,67 C441.715729,67 435,73.7157288 435,82 C435,90.2842712 441.715729,97 450,97 Z" id="Oval-10" fill="#50AA5A"></path>
        </g>
    </g>
</svg>